<svg width="40" height="40" viewBox="0 0 40 40" fill="none" xmlns="http://www.w3.org/2000/svg">
<path d="M33.2935 5.58758C29.7391 2.03307 25.0142 0.0758057 19.9871 0.0758057C19.9868 0.0758057 19.9857 0.0758057 19.9854 0.0758057C17.4989 0.0761017 15.076 0.557497 12.7842 1.50697C10.4921 2.45643 8.43863 3.82927 6.68032 5.58758C3.12611 9.1418 1.16885 13.8675 1.16885 18.894C1.16885 21.8917 1.89214 24.8706 3.2626 27.5248L0.099481 36.5613C-0.123453 37.1986 0.0343475 37.8914 0.512191 38.369C0.846443 38.7036 1.28639 38.8811 1.73877 38.8811C1.93269 38.8811 2.12869 38.8486 2.31994 38.7817L11.3563 35.6188C14.0105 36.9893 16.9895 37.7126 19.9871 37.7126C25.0137 37.7126 29.7391 35.7551 33.2935 32.2008C36.8478 28.6466 38.8054 23.9209 38.8054 18.8943C38.8054 13.8675 36.8482 9.1418 33.2935 5.58758ZM31.6842 30.5914C28.5598 33.716 24.4055 35.4365 19.9871 35.4365C17.284 35.4365 14.5988 34.768 12.2214 33.5026C11.7904 33.2734 11.2808 33.234 10.8234 33.3942L2.61363 36.2676L5.4872 28.0577C5.64737 27.5997 5.60771 27.0902 5.37855 26.6594C4.11348 24.2826 3.44468 21.5974 3.44468 18.894C3.44468 14.4756 5.16538 10.3213 8.28972 7.19697C11.4138 4.07294 15.5675 2.35223 19.9857 2.35163H19.9871C24.4058 2.35163 28.5598 4.07234 31.6842 7.19697C34.8088 10.3213 36.5295 14.4753 36.5295 18.894C36.5295 23.3128 34.8088 27.4671 31.6842 30.5914Z" fill="white"/>
<path d="M26.9806 20.5751C26.1151 19.7094 24.7063 19.7094 23.8406 20.5751L22.8938 21.5219C20.5428 20.2408 18.6403 18.3383 17.3589 15.9873L18.3058 15.0405C19.1718 14.1748 19.1718 12.7662 18.3058 11.9005L15.7543 9.34903C14.8887 8.48335 13.48 8.48335 12.6143 9.34903L10.5733 11.3901C9.40412 12.5592 9.3458 14.5692 10.409 17.0499C11.3321 19.2037 13.0214 21.5711 15.1658 23.7154C17.3102 25.8597 19.6774 27.5491 21.8312 28.4722C23.0098 28.9773 24.082 29.2293 25.0083 29.2293C26.0318 29.2293 26.8774 28.9217 27.4911 28.3079L29.5322 26.2665V26.2668C29.9517 25.8474 30.1826 25.2899 30.1826 24.6968C30.1826 24.1036 29.9517 23.546 29.5322 23.1268L26.9806 20.5751ZM25.8817 26.6985C25.548 27.0322 24.5218 27.1491 22.728 26.3805C20.8338 25.5688 18.7197 24.0505 16.7752 22.106C14.8306 20.1614 13.3127 18.0476 12.5009 16.1534C11.732 14.3596 11.849 13.3331 12.1826 12.9995L14.1846 10.9975L16.6574 13.4705L15.4722 14.6559C14.9363 15.1918 14.8069 16.0045 15.1507 16.6783C16.7088 19.7337 19.1475 22.1723 22.2029 23.7305C22.8769 24.0742 23.6897 23.9451 24.2255 23.4089L25.4106 22.2239L27.8837 24.6968L25.8817 26.6985Z" fill="white"/>
</svg>
